ffmpeg started on 2025-06-20 at 16:50:00
Report written to "D:\Convert\FFMetrics\reports\ssim_report-6.txt"
Log level: 32
Command line:
ffmpeg -hide_banner -nostdin -i "G:\\\xc0\xed\xe8\xec\xe5\\[\xd2\xee\xef]\\\xc2\xee\xeb\xf7\xe8\xf6\xe0 \xe8 \xef\xf0\xff\xed\xee\xf1\xf2\xe8\\\xd2\xee\xf0\xe3\xee\xe2\xe5\xf6 \xe2\xf1\xf2\xf0\xe5\xf7\xe0\xe5\xf2 \xec\xf3\xe4\xf0\xf3\xfe \xe2\xee\xeb\xf7\xe8\xf6\xf3\\DC_Ookami_to_Koushinryou_Merchant_Meets_the_Wise_Wolf_05_Telegram_HEVC.mkv" -i "G:\\\xc0\xed\xe8\xec\xe5\\[\xd2\xee\xef]\\\xc2\xee\xeb\xf7\xe8\xf6\xe0 \xe8 \xef\xf0\xff\xed\xee\xf1\xf2\xe8\\\xd2\xee\xf0\xe3\xee\xe2\xe5\xf6 \xe2\xf1\xf2\xf0\xe5\xf7\xe0\xe5\xf2 \xec\xf3\xe4\xf0\xf3\xfe \xe2\xee\xeb\xf7\xe8\xf6\xf3\\DC_Ookami_to_Koushinryou_Merchant_Meets_the_Wise_Wolf_05_Telegram.mp4" -lavfi "[0:v]settb=AVTB,setpts=PTS-STARTPTS,format=pix_fmts=yuv420p10,fps=24000/1001,scale=1920:1080:flags=bicubic[main];[1:v]settb=AVTB,setpts=PTS-STARTPTS,format=pix_fmts=yuv420p,fps=24000/1001,scale=1920:1080:flags=bicubic[ref];[main][ref]ssim=eof_action=endall:stats_file='D\\:/Convert/FFMetrics/logs/ssim_logfile-6.txt'" -f null -
Input #0, matroska,webm, from 'G:\Аниме\[Топ]\Волчица и пряности\Торговец встречает мудрую волчицу\DC_Ookami_to_Koushinryou_Merchant_Meets_the_Wise_Wolf_05_Telegram_HEVC.mkv':
  Metadata:
    COMPATIBLE_BRANDS: isomiso2avc1mp41
    MAJOR_BRAND     : isom
    MINOR_VERSION   : 512
    ENCODER         : Lavf61.7.100
  Duration: 00:23:57.74, start: -0.021000, bitrate: 728 kb/s
  Stream #0:0: Video: hevc (Main 10), yuv420p10le(tv, bt709, progressive), 1920x1080 [SAR 1:1 DAR 16:9], 23.98 fps, 23.98 tbr, 1k tbn (default)
      Metadata:
        HANDLER_NAME    : VideoHandler
        VENDOR_ID       : [0][0][0][0]
        ENCODER         : Lavc61.19.100 libx265
        BPS             : 530564
        DURATION        : 00:23:56.643708333
        NUMBER_OF_FRAMES: 34445
        NUMBER_OF_BYTES : 95278924
        _STATISTICS_WRITING_APP: mkvpropedit v66.0.0 ('Josie') 64-bit
        _STATISTICS_WRITING_DATE_UTC: 2025-06-20 09:44:45
        _STATISTICS_TAGS: BPS DURATION NUMBER_OF_FRAMES NUMBER_OF_BYTES
  Stream #0:1: Audio: aac (LC), 48000 Hz, stereo, fltp (default)
      Metadata:
        HANDLER_NAME    : SoundHandler
        VENDOR_ID       : [0][0][0][0]
        ENCODER         : Lavc61.19.100 aac
        BPS             : 193786
        DURATION        : 00:23:57.738000000
        NUMBER_OF_FRAMES: 67395
        NUMBER_OF_BYTES : 34826781
        _STATISTICS_WRITING_APP: mkvpropedit v66.0.0 ('Josie') 64-bit
        _STATISTICS_WRITING_DATE_UTC: 2025-06-20 09:44:45
        _STATISTICS_TAGS: BPS DURATION NUMBER_OF_FRAMES NUMBER_OF_BYTES
Input #1, mov,mp4,m4a,3gp,3g2,mj2, from 'G:\Аниме\[Топ]\Волчица и пряности\Торговец встречает мудрую волчицу\DC_Ookami_to_Koushinryou_Merchant_Meets_the_Wise_Wolf_05_Telegram.mp4':
  Metadata:
    major_brand     : isom
    minor_version   : 512
    compatible_brands: isomiso2avc1mp41
    encoder         : Lavf60.16.100
  Duration: 00:23:57.71, start: 0.000000, bitrate: 3487 kb/s
  Stream #1:0[0x1](und): Video: h264 (High) (avc1 / 0x31637661), yuv420p(tv, bt709, progressive), 1920x1080 [SAR 1:1 DAR 16:9], 3341 kb/s, 23.98 fps, 23.98 tbr, 24k tbn (default)
      Metadata:
        handler_name    : VideoHandler
        vendor_id       : [0][0][0][0]
        encoder         : Lavc60.31.102 h264_qsv
  Stream #1:1[0x2](und): Audio: aac (HE-AACv2) (mp4a / 0x6134706D), 48000 Hz, stereo, fltp, 144 kb/s (default)
      Metadata:
        handler_name    : SoundHandler
        vendor_id       : [0][0][0][0]
Stream mapping:
  Stream #0:0 (hevc) -> settb:default
  Stream #1:0 (h264) -> settb:default
  ssim:default -> Stream #0:0 (wrapped_avframe)
  Stream #0:1 -> #0:1 (aac (native) -> pcm_s16le (native))
Output #0, null, to 'pipe:':
  Metadata:
    COMPATIBLE_BRANDS: isomiso2avc1mp41
    MAJOR_BRAND     : isom
    MINOR_VERSION   : 512
    encoder         : Lavf61.7.100
  Stream #0:0: Video: wrapped_avframe, yuv420p10le(tv, bt709, progressive), 1920x1080 [SAR 1:1 DAR 16:9], q=2-31, 200 kb/s, 23.98 fps, 23.98 tbn
      Metadata:
        encoder         : Lavc61.19.100 wrapped_avframe
  Stream #0:1: Audio: pcm_s16le, 48000 Hz, stereo, s16, 1536 kb/s (default)
      Metadata:
        HANDLER_NAME    : SoundHandler
        VENDOR_ID       : [0][0][0][0]
        _STATISTICS_TAGS: BPS DURATION NUMBER_OF_FRAMES NUMBER_OF_BYTES
        BPS             : 193786
        DURATION        : 00:23:57.738000000
        NUMBER_OF_FRAMES: 67395
        NUMBER_OF_BYTES : 34826781
        _STATISTICS_WRITING_APP: mkvpropedit v66.0.0 ('Josie') 64-bit
        _STATISTICS_WRITING_DATE_UTC: 2025-06-20 09:44:45
        encoder         : Lavc61.19.100 pcm_s16le
frame=  187 fps=0.0 q=-0.0 size=N/A time=00:00:07.79 bitrate=N/A speed=14.9x    frame=  438 fps=425 q=-0.0 size=N/A time=00:00:18.26 bitrate=N/A speed=17.7x    frame=  738 fps=475 q=-0.0 size=N/A time=00:00:30.78 bitrate=N/A speed=19.8x    frame=  947 fps=457 q=-0.0 size=N/A time=00:00:39.49 bitrate=N/A speed=19.1x    frame= 1148 fps=445 q=-0.0 size=N/A time=00:00:47.88 bitrate=N/A speed=18.5x    frame= 1335 fps=430 q=-0.0 size=N/A time=00:00:55.68 bitrate=N/A speed=  18x    frame= 1533 fps=424 q=-0.0 size=N/A time=00:01:03.93 bitrate=N/A speed=17.7x    frame= 1748 fps=423 q=-0.0 size=N/A time=00:01:12.90 bitrate=N/A speed=17.6x    frame= 1967 fps=423 q=-0.0 size=N/A time=00:01:22.04 bitrate=N/A speed=17.7x    frame= 2179 fps=422 q=-0.0 size=N/A time=00:01:30.88 bitrate=N/A speed=17.6x    frame= 2420 fps=426 q=-0.0 size=N/A time=00:01:40.93 bitrate=N/A speed=17.8x    frame= 2636 fps=426 q=-0.0 size=N/A time=00:01:49.94 bitrate=N/A speed=17.7x    frame= 2903 fps=433 q=-0.0 size=N/A time=00:02:01.07 bitrate=N/A speed=18.1x    frame= 3183 fps=440 q=-0.0 size=N/A time=00:02:12.75 bitrate=N/A speed=18.4x    frame= 3457 fps=447 q=-0.0 size=N/A time=00:02:24.18 bitrate=N/A speed=18.6x    frame= 3731 fps=452 q=-0.0 size=N/A time=00:02:35.61 bitrate=N/A speed=18.9x    frame= 4020 fps=458 q=-0.0 size=N/A time=00:02:47.66 bitrate=N/A speed=19.1x    frame= 4222 fps=454 q=-0.0 size=N/A time=00:02:56.09 bitrate=N/A speed=  19x    frame= 4470 fps=456 q=-0.0 size=N/A time=00:03:06.43 bitrate=N/A speed=  19x    frame= 4760 fps=461 q=-0.0 size=N/A time=00:03:18.53 bitrate=N/A speed=19.2x    frame= 5040 fps=465 q=-0.0 size=N/A time=00:03:30.21 bitrate=N/A speed=19.4x    frame= 5298 fps=466 q=-0.0 size=N/A time=00:03:40.97 bitrate=N/A speed=19.4x    frame= 5572 fps=469 q=-0.0 size=N/A time=00:03:52.39 bitrate=N/A speed=19.6x    frame= 5842 fps=471 q=-0.0 size=N/A time=00:04:03.66 bitrate=N/A speed=19.6x    frame= 6111 fps=473 q=-0.0 size=N/A time=00:04:14.87 bitrate=N/A speed=19.7x    frame= 6387 fps=475 q=-0.0 size=N/A time=00:04:26.39 bitrate=N/A speed=19.8x    frame= 6662 fps=478 q=-0.0 size=N/A time=00:04:37.86 bitrate=N/A speed=19.9x    frame= 6935 fps=480 q=-0.0 size=N/A time=00:04:49.24 bitrate=N/A speed=  20x    frame= 7202 fps=481 q=-0.0 size=N/A time=00:05:00.38 bitrate=N/A speed=  20x    frame= 7456 fps=481 q=-0.0 size=N/A time=00:05:10.97 bitrate=N/A speed=20.1x    frame= 7713 fps=482 q=-0.0 size=N/A time=00:05:21.69 bitrate=N/A speed=20.1x    frame= 8003 fps=484 q=-0.0 size=N/A time=00:05:33.83 bitrate=N/A speed=20.2x    frame= 8283 fps=486 q=-0.0 size=N/A time=00:05:45.47 bitrate=N/A speed=20.3x    frame= 8557 fps=488 q=-0.0 size=N/A time=00:05:56.89 bitrate=N/A speed=20.3x    frame= 8858 fps=490 q=-0.0 size=N/A time=00:06:09.45 bitrate=N/A speed=20.4x    frame= 9138 fps=492 q=-0.0 size=N/A time=00:06:21.13 bitrate=N/A speed=20.5x    frame= 9422 fps=493 q=-0.0 size=N/A time=00:06:32.97 bitrate=N/A speed=20.6x    frame= 9708 fps=495 q=-0.0 size=N/A time=00:06:44.90 bitrate=N/A speed=20.6x    frame= 9982 fps=496 q=-0.0 size=N/A time=00:06:56.33 bitrate=N/A speed=20.7x    frame=10269 fps=497 q=-0.0 size=N/A time=00:07:08.30 bitrate=N/A speed=20.7x    frame=10554 fps=499 q=-0.0 size=N/A time=00:07:20.18 bitrate=N/A speed=20.8x    frame=10839 fps=500 q=-0.0 size=N/A time=00:07:32.07 bitrate=N/A speed=20.9x    frame=11120 fps=501 q=-0.0 size=N/A time=00:07:43.79 bitrate=N/A speed=20.9x    frame=11410 fps=503 q=-0.0 size=N/A time=00:07:55.89 bitrate=N/A speed=  21x    frame=11688 fps=503 q=-0.0 size=N/A time=00:08:07.48 bitrate=N/A speed=  21x    frame=11982 fps=505 q=-0.0 size=N/A time=00:08:19.74 bitrate=N/A speed=21.1x    frame=12277 fps=506 q=-0.0 size=N/A time=00:08:32.05 bitrate=N/A speed=21.1x    frame=12520 fps=505 q=-0.0 size=N/A time=00:08:42.18 bitrate=N/A speed=21.1x    frame=12771 fps=505 q=-0.0 size=N/A time=00:08:52.65 bitrate=N/A speed=21.1x    frame=13014 fps=504 q=-0.0 size=N/A time=00:09:02.79 bitrate=N/A speed=  21x    frame=13261 fps=504 q=-0.0 size=N/A time=00:09:13.09 bitrate=N/A speed=  21x    frame=13515 fps=504 q=-0.0 size=N/A time=00:09:23.68 bitrate=N/A speed=  21x    frame=13771 fps=504 q=-0.0 size=N/A time=00:09:34.36 bitrate=N/A speed=  21x    frame=14027 fps=503 q=-0.0 size=N/A time=00:09:45.04 bitrate=N/A speed=  21x    frame=14274 fps=503 q=-0.0 size=N/A time=00:09:55.34 bitrate=N/A speed=  21x    frame=14526 fps=503 q=-0.0 size=N/A time=00:10:05.85 bitrate=N/A speed=  21x    frame=14770 fps=502 q=-0.0 size=N/A time=00:10:16.03 bitrate=N/A speed=20.9x    frame=15005 fps=501 q=-0.0 size=N/A time=00:10:25.83 bitrate=N/A speed=20.9x    frame=15225 fps=500 q=-0.0 size=N/A time=00:10:35.00 bitrate=N/A speed=20.9x    frame=15490 fps=500 q=-0.0 size=N/A time=00:10:46.06 bitrate=N/A speed=20.9x    frame=15750 fps=500 q=-0.0 size=N/A time=00:10:56.90 bitrate=N/A speed=20.9x    frame=16016 fps=501 q=-0.0 size=N/A time=00:11:08.00 bitrate=N/A speed=20.9x    frame=16310 fps=502 q=-0.0 size=N/A time=00:11:20.26 bitrate=N/A speed=20.9x    frame=16586 fps=502 q=-0.0 size=N/A time=00:11:31.77 bitrate=N/A speed=20.9x    frame=16852 fps=502 q=-0.0 size=N/A time=00:11:42.86 bitrate=N/A speed=  21x    frame=17083 fps=502 q=-0.0 size=N/A time=00:11:52.50 bitrate=N/A speed=20.9x    frame=17349 fps=502 q=-0.0 size=N/A time=00:12:03.59 bitrate=N/A speed=20.9x    frame=17641 fps=503 q=-0.0 size=N/A time=00:12:15.77 bitrate=N/A speed=  21x    frame=17915 fps=503 q=-0.0 size=N/A time=00:12:27.20 bitrate=N/A speed=  21x    frame=18187 fps=503 q=-0.0 size=N/A time=00:12:38.54 bitrate=N/A speed=  21x    frame=18463 fps=504 q=-0.0 size=N/A time=00:12:50.06 bitrate=N/A speed=  21x    frame=18752 fps=505 q=-0.0 size=N/A time=00:13:02.11 bitrate=N/A speed=  21x    frame=19029 fps=505 q=-0.0 size=N/A time=00:13:13.66 bitrate=N/A speed=21.1x    frame=19328 fps=506 q=-0.0 size=N/A time=00:13:26.13 bitrate=N/A speed=21.1x    frame=19606 fps=507 q=-0.0 size=N/A time=00:13:37.73 bitrate=N/A speed=21.1x    frame=19876 fps=507 q=-0.0 size=N/A time=00:13:48.99 bitrate=N/A speed=21.1x    frame=20165 fps=507 q=-0.0 size=N/A time=00:14:01.04 bitrate=N/A speed=21.2x    frame=20400 fps=507 q=-0.0 size=N/A time=00:14:10.85 bitrate=N/A speed=21.1x    frame=20662 fps=507 q=-0.0 size=N/A time=00:14:21.77 bitrate=N/A speed=21.1x    frame=20922 fps=507 q=-0.0 size=N/A time=00:14:32.62 bitrate=N/A speed=21.1x    frame=21179 fps=507 q=-0.0 size=N/A time=00:14:43.34 bitrate=N/A speed=21.1x    frame=21448 fps=507 q=-0.0 size=N/A time=00:14:54.56 bitrate=N/A speed=21.1x    frame=21683 fps=506 q=-0.0 size=N/A time=00:15:04.36 bitrate=N/A speed=21.1x    frame=21942 fps=506 q=-0.0 size=N/A time=00:15:15.16 bitrate=N/A speed=21.1x    frame=22196 fps=506 q=-0.0 size=N/A time=00:15:25.75 bitrate=N/A speed=21.1x    frame=22438 fps=505 q=-0.0 size=N/A time=00:15:35.85 bitrate=N/A speed=21.1x    frame=22697 fps=505 q=-0.0 size=N/A time=00:15:46.65 bitrate=N/A speed=21.1x    frame=22940 fps=505 q=-0.0 size=N/A time=00:15:56.78 bitrate=N/A speed=21.1x    frame=23182 fps=505 q=-0.0 size=N/A time=00:16:06.88 bitrate=N/A speed=  21x    frame=23435 fps=504 q=-0.0 size=N/A time=00:16:17.43 bitrate=N/A speed=  21x    frame=23666 fps=504 q=-0.0 size=N/A time=00:16:27.06 bitrate=N/A speed=  21x    frame=23926 fps=504 q=-0.0 size=N/A time=00:16:37.91 bitrate=N/A speed=  21x    frame=24177 fps=504 q=-0.0 size=N/A time=00:16:48.38 bitrate=N/A speed=  21x    frame=24441 fps=504 q=-0.0 size=N/A time=00:16:59.39 bitrate=N/A speed=  21x    frame=24689 fps=504 q=-0.0 size=N/A time=00:17:09.73 bitrate=N/A speed=  21x    frame=24943 fps=503 q=-0.0 size=N/A time=00:17:20.33 bitrate=N/A speed=  21x    frame=25227 fps=504 q=-0.0 size=N/A time=00:17:32.17 bitrate=N/A speed=  21x    frame=25512 fps=504 q=-0.0 size=N/A time=00:17:44.06 bitrate=N/A speed=  21x    frame=25784 fps=505 q=-0.0 size=N/A time=00:17:55.40 bitrate=N/A speed=  21x    frame=26050 fps=505 q=-0.0 size=N/A time=00:18:06.50 bitrate=N/A speed=  21x    frame=26333 fps=505 q=-0.0 size=N/A time=00:18:18.30 bitrate=N/A speed=21.1x    frame=26609 fps=505 q=-0.0 size=N/A time=00:18:29.81 bitrate=N/A speed=21.1x    frame=26864 fps=505 q=-0.0 size=N/A time=00:18:40.45 bitrate=N/A speed=21.1x    frame=27121 fps=505 q=-0.0 size=N/A time=00:18:51.17 bitrate=N/A speed=21.1x    frame=27387 fps=505 q=-0.0 size=N/A time=00:19:02.26 bitrate=N/A speed=21.1x    frame=27642 fps=505 q=-0.0 size=N/A time=00:19:12.90 bitrate=N/A speed=21.1x    frame=27901 fps=505 q=-0.0 size=N/A time=00:19:23.70 bitrate=N/A speed=21.1x    frame=28155 fps=505 q=-0.0 size=N/A time=00:19:34.29 bitrate=N/A speed=21.1x    frame=28356 fps=504 q=-0.0 size=N/A time=00:19:42.68 bitrate=N/A speed=  21x    frame=28615 fps=504 q=-0.0 size=N/A time=00:19:53.48 bitrate=N/A speed=  21x    frame=28866 fps=504 q=-0.0 size=N/A time=00:20:03.95 bitrate=N/A speed=  21x    frame=29128 fps=504 q=-0.0 size=N/A time=00:20:14.88 bitrate=N/A speed=  21x    frame=29413 fps=504 q=-0.0 size=N/A time=00:20:26.76 bitrate=N/A speed=  21x    frame=29702 fps=505 q=-0.0 size=N/A time=00:20:38.82 bitrate=N/A speed=  21x    frame=29951 fps=505 q=-0.0 size=N/A time=00:20:49.20 bitrate=N/A speed=  21x    frame=30238 fps=505 q=-0.0 size=N/A time=00:21:01.17 bitrate=N/A speed=21.1x    frame=30540 fps=506 q=-0.0 size=N/A time=00:21:13.77 bitrate=N/A speed=21.1x    frame=30813 fps=506 q=-0.0 size=N/A time=00:21:25.15 bitrate=N/A speed=21.1x    frame=31079 fps=506 q=-0.0 size=N/A time=00:21:36.25 bitrate=N/A speed=21.1x    frame=31362 fps=506 q=-0.0 size=N/A time=00:21:48.05 bitrate=N/A speed=21.1x    frame=31628 fps=506 q=-0.0 size=N/A time=00:21:59.15 bitrate=N/A speed=21.1x    frame=31892 fps=506 q=-0.0 size=N/A time=00:22:10.16 bitrate=N/A speed=21.1x    frame=32165 fps=507 q=-0.0 size=N/A time=00:22:21.54 bitrate=N/A speed=21.1x    frame=32288 fps=504 q=-0.0 size=N/A time=00:22:26.67 bitrate=N/A speed=  21x    frame=32480 fps=503 q=-0.0 size=N/A time=00:22:34.68 bitrate=N/A speed=  21x    frame=32682 fps=502 q=-0.0 size=N/A time=00:22:43.11 bitrate=N/A speed=  21x    frame=32956 fps=503 q=-0.0 size=N/A time=00:22:54.53 bitrate=N/A speed=  21x    frame=33211 fps=503 q=-0.0 size=N/A time=00:23:05.17 bitrate=N/A speed=  21x    frame=33442 fps=502 q=-0.0 size=N/A time=00:23:14.81 bitrate=N/A speed=20.9x    frame=33672 fps=502 q=-0.0 size=N/A time=00:23:24.40 bitrate=N/A speed=20.9x    frame=33941 fps=502 q=-0.0 size=N/A time=00:23:35.62 bitrate=N/A speed=20.9x    frame=34114 fps=501 q=-0.0 size=N/A time=00:23:42.83 bitrate=N/A speed=20.9x    frame=34356 fps=500 q=-0.0 size=N/A time=00:23:52.93 bitrate=N/A speed=20.9x    [Parsed_ssim_10 @ 000002921e9e3440] SSIM Y:0.994949 (22.966487) U:0.995621 (23.585796) V:0.995994 (23.972854) All:0.995235 (23.219632)
[out#0/null @ 000002921e195480] video:14801KiB audio:269580KiB subtitle:0KiB other streams:0KiB global headers:0KiB muxing overhead: unknown
frame=34445 fps=501 q=-0.0 Lsize=N/A time=00:23:56.64 bitrate=N/A speed=20.9x    
